<svg width="12" height="12" viewBox="0 0 12 12" fill="none" xmlns="http://www.w3.org/2000/svg">
<path opacity="0.7" fill-rule="evenodd" clip-rule="evenodd" d="M8.61271 7.2375C8.39796 7.2375 8.21049 7.28523 8.0571 7.38409C7.60375 7.67386 7.24244 7.89886 7.0686 7.89886C6.97315 7.89886 6.87089 7.81364 6.64592 7.61932L6.60843 7.58523C5.98465 7.04318 5.85171 6.90341 5.6097 6.65114L5.54834 6.58636C5.50403 6.54205 5.46653 6.50114 5.42904 6.46364C5.2177 6.24546 5.06431 6.08864 4.52234 5.475L4.49848 5.44773C4.23942 5.15455 4.06899 4.96364 4.05876 4.82386C4.04854 4.6875 4.16784 4.46591 4.47121 4.05341C4.83934 3.55568 4.85298 2.94205 4.51552 2.22955C4.24624 1.66705 3.80652 1.12841 3.41794 0.654545L3.38385 0.613636C3.04981 0.204545 2.66122 0 2.22832 0C1.7477 0 1.34889 0.259091 1.13756 0.395455C1.12051 0.405682 1.10347 0.419318 1.08643 0.429545C0.612627 0.729545 0.268354 1.14205 0.138825 1.56136C-0.0554672 2.19205 -0.184996 3.01023 0.745564 4.71136C1.55 6.18409 2.27945 7.17273 3.43839 8.3625C4.52916 9.48068 5.01318 9.84205 6.09713 10.6261C7.30379 11.4989 8.46273 12 9.27399 12C10.0273 12 10.6204 12 11.4657 10.9807C12.352 9.91023 11.9839 9.25568 11.4521 8.70682C10.9544 8.19545 9.53986 7.2375 8.61271 7.2375Z" fill="#919EAB"/>
</svg>
