<svg width="34" height="34" viewBox="0 0 34 34" fill="none" xmlns="http://www.w3.org/2000/svg">
<g clip-path="url(#clip0)">
<path d="M15.3837 32.8059C18.085 32.8059 20.2749 30.616 20.2749 27.9147C20.2749 25.2133 18.085 23.0234 15.3837 23.0234C12.6823 23.0234 10.4924 25.2133 10.4924 27.9147C10.4924 30.616 12.6823 32.8059 15.3837 32.8059Z" fill="#5C9EFF"/>
<path d="M20.2617 7.2041H6.70654V27.9074H9.32755H10.4858C10.4858 25.207 12.6766 23.0162 15.3771 23.0162C18.0775 23.0162 20.2683 25.207 20.2683 27.9074H21.4927H24.0542V11.0032L20.2617 7.2041Z" fill="white"/>
<path d="M14.8011 29.9334C14.5893 29.9334 14.3908 29.8473 14.2386 29.7017L12.9479 28.4111C12.6368 28.1 12.6368 27.6036 12.9479 27.2925C13.259 26.9814 13.7554 26.9814 14.0665 27.2925L14.8011 28.0272L16.7073 26.121C17.0184 25.8099 17.5148 25.8099 17.8259 26.121C18.137 26.4321 18.137 26.9285 17.8259 27.2396L15.3571 29.7017C15.2115 29.854 15.0063 29.9334 14.8011 29.9334Z" fill="#ECF4F7"/>
<path d="M10.6646 12.1888H8.93049C8.75179 12.1888 8.61279 12.0498 8.61279 11.8711V10.137C8.61279 9.95833 8.7584 9.81934 8.93049 9.81934H10.6646C10.8433 9.81934 10.9823 9.95833 10.9823 10.137V11.8711C10.9823 12.0498 10.8433 12.1888 10.6646 12.1888Z" fill="#FDDF7F"/>
<path d="M10.6646 16.5902H8.93049C8.75179 16.5902 8.61279 16.4512 8.61279 16.2725V14.5384C8.61279 14.3597 8.7584 14.2207 8.93049 14.2207H10.6646C10.8433 14.2207 10.9823 14.3597 10.9823 14.5384V16.2725C10.9823 16.4512 10.8433 16.5902 10.6646 16.5902Z" fill="#FDDF7F"/>
<path d="M10.6646 20.9916H8.93049C8.75179 20.9916 8.61279 20.8526 8.61279 20.6739V18.9398C8.61279 18.7611 8.7584 18.6221 8.93049 18.6221H10.6646C10.8433 18.6221 10.9823 18.7611 10.9823 18.9398V20.6739C10.9823 20.846 10.8433 20.9916 10.6646 20.9916Z" fill="#FDDF7F"/>
<path d="M23.7826 3.68359H10.2275V7.20474H20.2615V11.0039H24.0606V25.9754H27.5818V7.48273L23.7826 3.68359Z" fill="#ECF4F7"/>
<path d="M24.385 10.9374C24.3783 10.9175 24.3783 10.8976 24.3651 10.8844C24.3651 10.8778 24.3585 10.8712 24.3585 10.8712C24.3519 10.8579 24.3452 10.8447 24.3386 10.8315C24.3386 10.8248 24.332 10.8248 24.332 10.8182C24.3188 10.805 24.3055 10.7851 24.2923 10.7719L20.4932 6.97275C20.4799 6.95952 20.4667 6.94628 20.4468 6.93304C20.4402 6.92642 20.4402 6.92642 20.4336 6.92642C20.4204 6.9198 20.4071 6.91318 20.3939 6.90657C20.3873 6.90657 20.3806 6.89995 20.3806 6.89995C20.3608 6.89333 20.3409 6.88671 20.3277 6.88009C20.3078 6.87347 20.288 6.87347 20.2681 6.87347H20.2615H7.03734V4.68268C7.03734 4.49736 6.89172 4.35175 6.7064 4.35175C6.52108 4.35175 6.37546 4.49736 6.37546 4.68268V7.20441V27.9077C6.37546 28.093 6.52108 28.2387 6.7064 28.2387H9.32741C9.51273 28.2387 9.65834 28.093 9.65834 27.9077C9.65834 27.7224 9.51273 27.5768 9.32741 27.5768H7.03734V7.53534H19.9306V11.0035C19.9306 11.1889 20.0762 11.3345 20.2615 11.3345H23.7297V27.5768H21.4992C21.3139 27.5768 21.1683 27.7224 21.1683 27.9077C21.1683 28.093 21.3139 28.2387 21.4992 28.2387H24.0606C24.246 28.2387 24.3916 28.093 24.3916 27.9077V11.0035V10.9969C24.3916 10.9771 24.3916 10.9572 24.385 10.9374ZM20.5924 10.6726V8.00527L23.2598 10.6726H20.5924ZM6.37546 1.41966H5.99158C5.80626 1.41966 5.66064 1.27405 5.66064 1.08872C5.66064 0.9034 5.80626 0.757789 5.99158 0.757789H6.37546V0.373904C6.37546 0.18858 6.52108 0.0429688 6.7064 0.0429688C6.89172 0.0429688 7.03734 0.18858 7.03734 0.373904V0.757789H7.42122C7.60654 0.757789 7.75216 0.9034 7.75216 1.08872C7.75216 1.27405 7.60654 1.41966 7.42122 1.41966H7.03734V1.80354C7.03734 1.98887 6.89172 2.13448 6.7064 2.13448C6.52108 2.13448 6.37546 1.98887 6.37546 1.80354V1.41966ZM7.03734 3.00815V3.31923C7.03734 3.50455 6.89172 3.65016 6.7064 3.65016C6.52108 3.65016 6.37546 3.50455 6.37546 3.31923V3.00815C6.37546 2.82282 6.52108 2.67721 6.7064 2.67721C6.89172 2.67721 7.03734 2.82282 7.03734 3.00815ZM28.6276 32.0907C28.6276 32.2761 28.4819 32.4217 28.2966 32.4217H27.9127V32.8056C27.9127 32.9909 27.7671 33.1365 27.5818 33.1365C27.3965 33.1365 27.2509 32.9909 27.2509 32.8056V32.4217H26.867C26.6817 32.4217 26.536 32.2761 26.536 32.0907C26.536 31.9054 26.6817 31.7598 26.867 31.7598H27.2509V31.3759C27.2509 31.1906 27.3965 31.045 27.5818 31.045C27.7671 31.045 27.9127 31.1906 27.9127 31.3759V31.7598H28.2966C28.4819 31.7598 28.6276 31.9054 28.6276 32.0907ZM27.9127 29.8602V30.1713C27.9127 30.3566 27.7671 30.5023 27.5818 30.5023C27.3965 30.5023 27.2509 30.3566 27.2509 30.1713V29.8602C27.2509 29.6749 27.3965 29.5293 27.5818 29.5293C27.7671 29.5293 27.9127 29.6815 27.9127 29.8602ZM27.2509 26.306H25.4175C25.2322 26.306 25.0865 26.1604 25.0865 25.9751C25.0865 25.7897 25.2322 25.6441 25.4175 25.6441H27.2509V7.62139L23.6437 4.01419H10.5585V5.97995C10.5585 6.16527 10.4129 6.31088 10.2276 6.31088C10.0422 6.31088 9.89662 6.16527 9.89662 5.97995V3.68326C9.89662 3.49793 10.0422 3.35232 10.2276 3.35232H23.7827C23.8687 3.35232 23.9547 3.38542 24.0143 3.4516L27.8135 7.25074C27.873 7.31031 27.9127 7.39635 27.9127 7.48239V25.9684V28.4902C27.9127 28.6755 27.7671 28.8211 27.5818 28.8211C27.3965 28.8211 27.2509 28.6755 27.2509 28.4902V26.306ZM15.3835 22.6856C12.5044 22.6856 10.1614 25.0286 10.1614 27.9077C10.1614 30.7869 12.5044 33.1299 15.3835 33.1299C18.2627 33.1299 20.6057 30.7869 20.6057 27.9077C20.6057 25.0286 18.2627 22.6856 15.3835 22.6856ZM15.3835 32.4746C12.8684 32.4746 10.8232 30.4294 10.8232 27.9143C10.8232 25.3992 12.8684 23.354 15.3835 23.354C17.8986 23.354 19.9438 25.3992 19.9438 27.9143C19.9438 30.4294 17.8986 32.4746 15.3835 32.4746ZM8.93028 12.5192H10.6644C11.0218 12.5192 11.313 12.228 11.313 11.8706V10.1365C11.313 9.77908 11.0218 9.48786 10.6644 9.48786H8.93028C8.57287 9.48786 8.28165 9.77908 8.28165 10.1365V11.8706C8.28165 12.228 8.57287 12.5192 8.93028 12.5192ZM8.94352 10.1497H10.6511V11.8574H8.94352V10.1497ZM8.28165 16.272C8.28165 16.6294 8.57287 16.9207 8.93028 16.9207H10.6644C11.0218 16.9207 11.313 16.6294 11.313 16.272V14.5379C11.313 14.1805 11.0218 13.8893 10.6644 13.8893H8.93028C8.57287 13.8893 8.28165 14.1805 8.28165 14.5379V16.272ZM8.94352 14.5512H10.6511V16.2588H8.94352V14.5512ZM8.28165 20.6735C8.28165 21.0309 8.57287 21.3221 8.93028 21.3221H10.6644C11.0218 21.3221 11.313 21.0309 11.313 20.6735V18.9394C11.313 18.582 11.0218 18.2907 10.6644 18.2907H8.93028C8.57287 18.2907 8.28165 18.582 8.28165 18.9394C8.28165 18.9328 8.28165 20.6735 8.28165 20.6735ZM8.94352 18.946H10.6511V20.6536H8.94352V18.946ZM12.4713 11.0035C12.4713 10.8182 12.6169 10.6726 12.8022 10.6726H17.3162C17.5015 10.6726 17.6471 10.8182 17.6471 11.0035C17.6471 11.1889 17.5015 11.3345 17.3162 11.3345H12.8022C12.6169 11.3345 12.4713 11.1889 12.4713 11.0035ZM12.4713 15.405C12.4713 15.2197 12.6169 15.074 12.8022 15.074H17.3162C17.5015 15.074 17.6471 15.2197 17.6471 15.405C17.6471 15.5903 17.5015 15.7359 17.3162 15.7359H12.8022C12.6169 15.7359 12.4713 15.5837 12.4713 15.405ZM12.4713 19.7998C12.4713 19.6145 12.6169 19.4689 12.8022 19.4689H17.3162C17.5015 19.4689 17.6471 19.6145 17.6471 19.7998C17.6471 19.9851 17.5015 20.1307 17.3162 20.1307H12.8022C12.6169 20.1307 12.4713 19.9851 12.4713 19.7998ZM17.2632 25.5581C16.9654 25.5581 16.6808 25.6772 16.469 25.889L14.8011 27.5569L14.3047 27.0605C14.0929 26.8487 13.8083 26.7296 13.5104 26.7296C13.2126 26.7296 12.928 26.8487 12.7162 27.0605C12.2793 27.4974 12.2793 28.2122 12.7162 28.649L14.0068 29.9397C14.2186 30.1515 14.5032 30.2706 14.8011 30.2706C15.0989 30.2706 15.3835 30.1515 15.5953 29.9397L18.0575 27.4775C18.2693 27.2657 18.3884 26.9811 18.3884 26.6833C18.3884 26.3854 18.2693 26.1008 18.0575 25.889C17.8457 25.6772 17.5611 25.5581 17.2632 25.5581ZM17.5876 27.0076L15.1254 29.4697C15.0393 29.5558 14.9202 29.6021 14.8011 29.6021C14.6753 29.6021 14.5628 29.5558 14.4768 29.4697L13.1861 28.1791C13.0074 28.0004 13.0074 27.7092 13.1861 27.5305C13.2722 27.4444 13.3913 27.3981 13.5104 27.3981C13.6362 27.3981 13.7487 27.4444 13.8347 27.5305L14.5694 28.2651C14.7018 28.3975 14.907 28.3975 15.0393 28.2651L16.9455 26.3589C17.0316 26.2729 17.1507 26.2266 17.2699 26.2266C17.389 26.2266 17.5081 26.2729 17.5942 26.3589C17.6802 26.445 17.7265 26.5641 17.7265 26.6833C17.7265 26.8024 17.6736 26.9215 17.5876 27.0076Z" fill="#1C1D21"/>
</g>
<defs>
<clipPath id="clip0">
<rect x="0.597412" y="0.0429688" width="33.0935" height="33.0935" fill="white"/>
</clipPath>
</defs>
</svg>
