<svg width="34" height="34" viewBox="0 0 34 34" fill="none" xmlns="http://www.w3.org/2000/svg">
<g clip-path="url(#clip0)">
<path d="M18.2463 1.6318L16.821 0.465647C16.6997 0.366499 16.5321 0.345981 16.3905 0.413094C16.249 0.480208 16.1587 0.622841 16.1587 0.779506V1.15055C12.3997 1.38704 8.89818 2.96282 6.21118 5.64981C3.28902 8.57204 1.67969 12.4573 1.67969 16.5899H3.33436C3.33436 9.30499 9.00163 3.31943 16.1588 2.80893V3.11174C16.1588 3.2684 16.249 3.41104 16.3906 3.47815C16.5322 3.54526 16.6998 3.52481 16.821 3.4256L18.2464 2.25951C18.3405 2.18247 18.3951 2.06731 18.3951 1.94565C18.395 1.824 18.3405 1.70877 18.2463 1.6318Z" fill="#5C9EFF"/>
<path d="M16.0562 31.548L17.4815 32.7141C17.6028 32.8132 17.7704 32.8337 17.9119 32.7666C18.0535 32.6995 18.1438 32.5569 18.1438 32.4002V32.0292C21.9029 31.7928 25.4044 30.2169 28.0914 27.5299C31.0135 24.6077 32.6229 20.7224 32.6229 16.5898H30.9682C30.9682 23.8747 25.3009 29.8603 18.1438 30.3708V30.068C18.1438 29.9113 18.0535 29.7687 17.9119 29.7016C17.7704 29.6345 17.6028 29.6549 17.4815 29.7541L16.0562 30.9202C15.9621 30.9972 15.9075 31.1124 15.9075 31.2341C15.9075 31.3558 15.962 31.471 16.0562 31.548Z" fill="#5C9EFF"/>
<path d="M17.1514 28.0954C23.5059 28.0954 28.6571 22.9441 28.6571 16.5897C28.6571 10.2353 23.5059 5.08398 17.1514 5.08398C10.797 5.08398 5.64575 10.2353 5.64575 16.5897C5.64575 22.9441 10.797 28.0954 17.1514 28.0954Z" fill="white"/>
<path d="M17.5552 15.748H17.1512H16.7471C16.6036 15.748 16.4868 15.6312 16.4868 15.4873V14.5325C16.4868 14.3886 16.6036 14.2718 16.7471 14.2718H18.6567C19.1211 14.2718 19.4976 13.8951 19.4976 13.4305C19.4976 12.9658 19.1211 12.5891 18.6567 12.5891H18.13V11.7339C18.13 11.2693 17.7533 10.8926 17.2888 10.8926C16.8244 10.8926 16.4479 11.2693 16.4479 11.7339V12.6123C15.5184 12.7569 14.8047 13.5627 14.8047 14.5325V15.4874C14.8047 16.5591 15.6762 17.4308 16.7471 17.4308H17.1512H17.5552C17.6987 17.4308 17.8155 17.5476 17.8155 17.6912V18.6463C17.8155 18.7899 17.6987 18.907 17.5552 18.907H15.6459C15.1812 18.907 14.8047 19.2834 14.8047 19.7483C14.8047 20.213 15.1812 20.5895 15.6459 20.5895H16.4479V21.4448C16.4479 21.9095 16.8244 22.2862 17.2888 22.2862C17.7533 22.2862 18.13 21.9095 18.13 21.4448V20.5027C18.9214 20.2568 19.4976 19.5177 19.4976 18.6463V17.6911C19.4976 16.6197 18.6261 15.748 17.5552 15.748Z" fill="#FDDF7F"/>
<path d="M6.44535 5.88419C3.58567 8.74387 2.01075 12.546 2.01075 16.5902C2.01075 16.773 1.86255 16.9211 1.67981 16.9211C1.49707 16.9211 1.34888 16.773 1.34888 16.5902C1.34888 12.3693 2.99263 8.40089 5.97734 5.41612C8.62634 2.76718 12.1139 1.15056 15.828 0.843186V0.779845C15.828 0.496763 15.9934 0.235522 16.2492 0.1144C16.5047 -0.00685473 16.8116 0.0306071 17.0307 0.209776L18.456 1.37599C18.6277 1.51637 18.7262 1.72407 18.7262 1.94593C18.7262 2.16785 18.6277 2.37561 18.4559 2.516L17.0308 3.68201C16.8116 3.86132 16.5049 3.89878 16.249 3.77746C16.0106 3.66447 15.8507 3.42978 15.8302 3.16913C8.98038 3.83868 3.66542 9.66658 3.66542 16.5902V20.9872C3.66542 21.17 3.51723 21.3182 3.33449 21.3182C3.15175 21.3182 3.00355 21.17 3.00355 20.9872V16.5902C3.00355 12.9943 4.35933 9.56472 6.82109 6.93325C9.27074 4.3147 12.5786 2.73289 16.1353 2.4792C16.2268 2.47291 16.3172 2.50448 16.3844 2.56709C16.4516 2.62971 16.4898 2.7174 16.4898 2.80927V3.11208C16.4898 3.14074 16.5066 3.16715 16.5325 3.17939C16.5583 3.1917 16.5894 3.18786 16.6117 3.16973L18.0369 2.00364C18.0543 1.98941 18.0642 1.96837 18.0642 1.94593C18.0642 1.92349 18.0543 1.90244 18.037 1.88828L16.6116 0.722063C16.5895 0.70406 16.5585 0.700155 16.5326 0.7124C16.5065 0.724711 16.4898 0.751119 16.4898 0.779778V1.15076C16.4898 1.32549 16.354 1.47004 16.1797 1.48103C12.5109 1.71196 9.05384 3.27563 6.44535 5.88419ZM32.623 16.2593C32.4402 16.2593 32.2921 16.4075 32.2921 16.5902C32.2921 20.6344 30.7171 24.4365 27.8575 27.2962C25.2489 29.9048 21.7918 31.4685 18.1231 31.6992C17.9487 31.7102 17.8129 31.8548 17.8129 32.0295V32.4004C17.8129 32.4291 17.7962 32.4555 17.7702 32.4678C17.7444 32.4801 17.7133 32.4762 17.6912 32.4582L16.2659 31.292C16.2485 31.2778 16.2385 31.2568 16.2385 31.2343C16.2385 31.2118 16.2484 31.1908 16.2659 31.1766L17.6911 30.0106C17.7134 29.9924 17.7443 29.9886 17.7703 30.0009C17.7962 30.0131 17.813 30.0396 17.813 30.0682V30.371C17.813 30.4629 17.8512 30.5506 17.9184 30.6132C17.9857 30.6758 18.0763 30.7077 18.1675 30.7011C21.7242 30.4474 25.0321 28.8656 27.4818 26.247C29.9435 23.6156 31.2994 20.186 31.2994 16.5901V12.1931C31.2994 12.0103 31.1513 11.8621 30.9684 11.8621C30.7856 11.8621 30.6375 12.0103 30.6375 12.1931V16.5902C30.6375 23.5138 25.3225 29.3417 18.4727 30.0113C18.4521 29.7506 18.2923 29.5159 18.054 29.403C17.7982 29.2816 17.4914 29.319 17.2722 29.4984L15.8469 30.6645C15.6752 30.8049 15.5767 31.0126 15.5767 31.2345C15.5767 31.4564 15.6751 31.664 15.8468 31.8044L17.2722 32.9706C17.406 33.0799 17.5722 33.1364 17.7396 33.1364C17.8466 33.1364 17.9541 33.1133 18.0538 33.066C18.3096 32.9448 18.4749 32.6837 18.4749 32.4005V32.3372C22.1889 32.0298 25.6767 30.4132 28.3255 27.7642C31.3102 24.7795 32.9539 20.8112 32.9539 16.5902C32.9539 16.4075 32.8058 16.2593 32.623 16.2593ZM17.1514 28.4268C10.6246 28.4268 5.31474 23.1169 5.31474 16.5902C5.31474 10.0635 10.6246 4.75358 17.1514 4.75358C23.6781 4.75358 28.988 10.0635 28.988 16.5902C28.988 23.1169 23.6781 28.4268 17.1514 28.4268ZM17.1514 27.765C23.3132 27.765 28.3261 22.752 28.3261 16.5902C28.3261 10.4285 23.3132 5.41545 17.1514 5.41545C10.9896 5.41545 5.97661 10.4284 5.97661 16.5902C5.97661 22.752 10.9896 27.765 17.1514 27.765ZM27.0055 16.5902C27.0055 11.1567 22.585 6.73608 17.1514 6.73608C14.6371 6.73608 12.2432 7.68295 10.4105 9.4023C10.2772 9.52732 10.2706 9.73681 10.3956 9.87004C10.5207 10.0033 10.73 10.0101 10.8633 9.885C12.5729 8.28122 14.806 7.39795 17.1513 7.39795C22.2199 7.39795 26.3436 11.5216 26.3436 16.5902C26.3436 21.6588 22.22 25.7825 17.1514 25.7825C12.0828 25.7825 7.95911 21.6588 7.95911 16.5902C7.95911 14.9766 8.38304 13.3895 9.18503 12.0006C9.27643 11.8423 9.22222 11.6399 9.0639 11.5485C8.90552 11.4571 8.70319 11.5113 8.61178 11.6696C7.75175 13.159 7.29717 14.8605 7.29717 16.5902C7.29717 22.0238 11.7177 26.4443 17.1513 26.4443C22.585 26.4443 27.0055 22.0238 27.0055 16.5902ZM9.36519 11.0956C9.42509 11.1412 9.49544 11.1631 9.56521 11.1631C9.66508 11.1631 9.76383 11.1181 9.8289 11.0324C9.87172 10.9761 9.91514 10.9203 9.95922 10.865C10.0731 10.722 10.0496 10.5138 9.90667 10.3999C9.7637 10.286 9.55548 10.3095 9.44164 10.4525C9.39444 10.5117 9.34785 10.5715 9.30205 10.6318C9.19138 10.7775 9.21971 10.985 9.36519 11.0956ZM17.4848 18.5768V17.7625H16.7474C15.4938 17.7625 14.474 16.7422 14.474 15.4881V14.5332C14.474 13.5194 15.163 12.626 16.1172 12.3483V11.7347C16.1172 11.0882 16.6429 10.5624 17.289 10.5624C17.9354 10.5624 18.4611 11.0882 18.4611 11.7347V12.2589H18.6569C19.3031 12.2589 19.8288 12.7848 19.8288 13.4312C19.8288 14.0776 19.3031 14.6035 18.6569 14.6035H16.8179V15.4178H17.5554C18.8089 15.4178 19.8288 16.438 19.8288 17.6919V18.647C19.8288 19.5655 19.2885 20.3756 18.4612 20.7333V21.4456C18.4612 22.092 17.9354 22.6179 17.2891 22.6179C16.6429 22.6179 16.1173 22.092 16.1173 21.4456V20.9211H15.6461C14.9998 20.9211 14.474 20.3953 14.474 19.7491C14.474 19.1026 14.9998 18.5768 15.6461 18.5768L17.4848 18.5768ZM18.1467 17.692V18.6471C18.1467 18.9733 17.8814 19.2387 17.5553 19.2387H15.646C15.3646 19.2387 15.1358 19.4677 15.1358 19.7491C15.1358 20.0304 15.3646 20.2593 15.646 20.2593H16.4481C16.6308 20.2593 16.779 20.4075 16.779 20.5902V21.4456C16.779 21.7271 17.0078 21.9561 17.289 21.9561C17.5703 21.9561 17.7992 21.7271 17.7992 21.4456V20.5035C17.7992 20.3586 17.8935 20.2305 18.0319 20.1875C18.7108 19.9765 19.1668 19.3574 19.1668 18.647V17.6919C19.1668 16.8029 18.4439 16.0796 17.5552 16.0796H16.7472C16.4212 16.0796 16.1559 15.8142 16.1559 15.4881V14.5332C16.1559 14.207 16.4212 13.9416 16.7472 13.9416H18.6568C18.938 13.9416 19.1668 13.7126 19.1668 13.4312C19.1668 13.1497 18.938 12.9207 18.6568 12.9207H18.1301C17.9473 12.9207 17.7991 12.7725 17.7991 12.5898V11.7347C17.7991 11.4532 17.5703 11.2242 17.2889 11.2242C17.0077 11.2242 16.7789 11.4532 16.7789 11.7347V12.613C16.7789 12.7762 16.6601 12.915 16.4988 12.94C15.7217 13.0609 15.1357 13.7458 15.1357 14.5332V15.4881C15.1357 16.3772 15.8586 17.1006 16.7472 17.1006H17.5552C17.8814 17.1006 18.1467 17.3659 18.1467 17.692ZM4.05149 24.3672H3.66542V23.9811C3.66542 23.7984 3.51723 23.6502 3.33449 23.6502C3.15175 23.6502 3.00355 23.7984 3.00355 23.9811V24.3672H2.61748C2.43474 24.3672 2.28655 24.5154 2.28655 24.6981C2.28655 24.8809 2.43474 25.0291 2.61748 25.0291H3.00355V25.4151C3.00355 25.5979 3.15175 25.7461 3.33449 25.7461C3.51723 25.7461 3.66542 25.5979 3.66542 25.4151V25.0291H4.05149C4.23424 25.0291 4.38243 24.8809 4.38243 24.6981C4.38243 24.5154 4.23424 24.3672 4.05149 24.3672ZM3.33449 22.1118C3.15175 22.1118 3.00355 22.26 3.00355 22.4427V22.7216C3.00355 22.9044 3.15175 23.0526 3.33449 23.0526C3.51723 23.0526 3.66542 22.9044 3.66542 22.7216V22.4427C3.66542 22.26 3.51723 22.1118 3.33449 22.1118ZM30.2513 8.81323H30.6374V9.1993C30.6374 9.38204 30.7855 9.53024 30.9683 9.53024C31.1511 9.53024 31.2993 9.38204 31.2993 9.1993V8.81323H31.6853C31.8681 8.81323 32.0162 8.66504 32.0162 8.4823C32.0162 8.29955 31.8681 8.15136 31.6853 8.15136H31.2993V7.76529C31.2993 7.58255 31.1511 7.43436 30.9683 7.43436C30.7855 7.43436 30.6374 7.58255 30.6374 7.76529V8.15136H30.2513C30.0685 8.15136 29.9204 8.29955 29.9204 8.4823C29.9204 8.66504 30.0685 8.81323 30.2513 8.81323ZM30.9683 10.1278C30.7855 10.1278 30.6374 10.276 30.6374 10.4588V10.7377C30.6374 10.9204 30.7855 11.0686 30.9683 11.0686C31.1511 11.0686 31.2993 10.9204 31.2993 10.7377V10.4588C31.2993 10.276 31.1511 10.1278 30.9683 10.1278Z" fill="#1C1D21"/>
</g>
<defs>
<clipPath id="clip0">
<rect x="0.604492" y="0.0429688" width="33.0935" height="33.0935" fill="white"/>
</clipPath>
</defs>
</svg>
