<svg width="34" height="34" viewBox="0 0 34 34" fill="none" xmlns="http://www.w3.org/2000/svg">
<g clip-path="url(#clip0)">
<path d="M27.4533 32.8062C29.5108 32.8062 31.1786 31.1384 31.1786 29.081V15.6533H13.653V29.081C13.653 31.1384 11.9852 32.8062 9.92773 32.8062H27.4533Z" fill="white"/>
<path d="M18.2147 23.3001H17.8597H17.5046C17.3785 23.3001 17.2758 23.1974 17.2758 23.071V22.2319C17.2758 22.1055 17.3785 22.0028 17.5046 22.0028H19.1827C19.5909 22.0028 19.9217 21.6718 19.9217 21.2634C19.9217 20.8551 19.5909 20.5241 19.1827 20.5241H18.7198V19.7726C18.7198 19.3643 18.3888 19.0332 17.9807 19.0332C17.5725 19.0332 17.2417 19.3643 17.2417 19.7726V20.5445C16.4248 20.6715 15.7976 21.3797 15.7976 22.2319V23.071C15.7976 24.0128 16.5635 24.7789 17.5046 24.7789H17.8597H18.2147C18.3408 24.7789 18.4435 24.8816 18.4435 25.0077V25.8471C18.4435 25.9733 18.3408 26.0762 18.2147 26.0762H16.5368C16.1285 26.0762 15.7976 26.407 15.7976 26.8155C15.7976 27.2239 16.1285 27.5547 16.5368 27.5547H17.2417V28.3064C17.2417 28.7147 17.5725 29.0458 17.9807 29.0458C18.3888 29.0458 18.7198 28.7147 18.7198 28.3064V27.4785C19.4153 27.2624 19.9217 26.6129 19.9217 25.8471V25.0077C19.9217 24.0661 19.1559 23.3001 18.2147 23.3001Z" fill="#FDDF7F"/>
<path d="M6.20264 10.6572V29.0801C6.20264 31.1374 7.87048 32.8053 9.92791 32.8053C11.9853 32.8053 13.6532 31.1375 13.6532 29.0801V15.6524H16.0822V10.6572H6.20264Z" fill="#ECF4F7"/>
<path d="M22.289 2.74512L13.3992 8.35732H16.0822V15.6529H18.2215V8.35732H21.2193V15.6529H23.3586V8.35732H26.3564V15.6529H28.4957V8.35732H31.1787L22.289 2.74512Z" fill="#5C9EFF"/>
<path d="M13.3992 8.68806H31.1787C31.3261 8.68806 31.4557 8.59063 31.4966 8.44905C31.5376 8.30748 31.48 8.15591 31.3554 8.07728L22.4656 2.46515C22.3577 2.39704 22.2203 2.39704 22.1123 2.46515L13.2225 8.07728C13.0979 8.15591 13.0403 8.30755 13.0813 8.44905C13.1222 8.59056 13.2518 8.68806 13.3992 8.68806ZM22.289 3.13635L30.0346 8.02619H14.5433L22.289 3.13635ZM18.2215 9.02614C18.4043 9.02614 18.5524 9.17433 18.5524 9.35707V14.6528C18.5524 14.8355 18.4043 14.9837 18.2215 14.9837C18.0387 14.9837 17.8906 14.8355 17.8906 14.6528V9.35707C17.8906 9.17433 18.0388 9.02614 18.2215 9.02614ZM16.0823 9.02614C16.265 9.02614 16.4132 9.17433 16.4132 9.35707V14.6528C16.4132 14.8355 16.265 14.9837 16.0823 14.9837C15.8995 14.9837 15.7513 14.8355 15.7513 14.6528V9.35707C15.7513 9.17433 15.8995 9.02614 16.0823 9.02614ZM23.3587 9.02614C23.5415 9.02614 23.6896 9.17433 23.6896 9.35707V14.6528C23.6896 14.8355 23.5415 14.9837 23.3587 14.9837C23.1759 14.9837 23.0277 14.8355 23.0277 14.6528V9.35707C23.0277 9.17433 23.1759 9.02614 23.3587 9.02614ZM21.2194 9.02614C21.4022 9.02614 21.5503 9.17433 21.5503 9.35707V14.6528C21.5503 14.8355 21.4022 14.9837 21.2194 14.9837C21.0366 14.9837 20.8884 14.8355 20.8884 14.6528V9.35707C20.8884 9.17433 21.0366 9.02614 21.2194 9.02614ZM28.4958 9.02614C28.6786 9.02614 28.8267 9.17433 28.8267 9.35707V14.6528C28.8267 14.8355 28.6786 14.9837 28.4958 14.9837C28.313 14.9837 28.1648 14.8355 28.1648 14.6528V9.35707C28.1648 9.17433 28.313 9.02614 28.4958 9.02614ZM26.3565 9.02614C26.5394 9.02614 26.6875 9.17433 26.6875 9.35707V14.6528C26.6875 14.8355 26.5394 14.9837 26.3565 14.9837C26.1737 14.9837 26.0256 14.8355 26.0256 14.6528V9.35707C26.0256 9.17433 26.1737 9.02614 26.3565 9.02614ZM31.1788 15.3217H13.6532C13.4705 15.3217 13.3223 15.4699 13.3223 15.6527V29.0803C13.3223 30.7765 12.0717 32.186 10.4442 32.4354C10.2758 32.4613 10.1035 32.4746 9.92793 32.4746C8.05629 32.4746 6.53359 30.9519 6.53359 29.0803V10.9884H14.8659C15.0486 10.9884 15.1968 10.8402 15.1968 10.6575C15.1968 10.4747 15.0486 10.3265 14.8659 10.3265H6.20272C6.01998 10.3265 5.87179 10.4747 5.87179 10.6575V29.0803C5.87179 30.4992 6.60468 31.7495 7.71126 32.4746H4.49516C4.31242 32.4746 4.16423 32.6228 4.16423 32.8056C4.16423 32.9883 4.31242 33.1365 4.49516 33.1365H9.92799H27.4536C29.6902 33.1365 31.5097 31.3169 31.5097 29.0803V15.6527C31.5097 15.4699 31.3616 15.3217 31.1788 15.3217ZM30.8479 29.0803C30.8479 30.9519 29.3252 32.4746 27.4536 32.4746H12.1465C12.1575 32.4674 12.1682 32.4599 12.1791 32.4526C12.1896 32.4456 12.2 32.4384 12.2105 32.4313C12.2583 32.3986 12.3057 32.3652 12.3521 32.3305C12.3541 32.3291 12.3559 32.3275 12.3579 32.326C12.4027 32.2925 12.4464 32.2578 12.4897 32.2224C12.4994 32.2145 12.5091 32.2066 12.5187 32.1986C12.5623 32.1623 12.6053 32.1253 12.6473 32.0872C12.6544 32.0809 12.6612 32.0743 12.6682 32.0678C12.7059 32.0332 12.743 31.9978 12.7794 31.9618C12.7869 31.9544 12.7946 31.947 12.802 31.9396C12.8417 31.8996 12.8807 31.8587 12.9188 31.8171C12.9272 31.8079 12.9354 31.7986 12.9437 31.7894C12.9795 31.7497 13.0146 31.7094 13.0487 31.6683C13.0522 31.6642 13.0557 31.6602 13.059 31.6561C13.0953 31.6121 13.1305 31.5671 13.1649 31.5215C13.1729 31.5108 13.1809 31.5001 13.1888 31.4894C13.2228 31.4436 13.2561 31.3972 13.2882 31.3498C13.2913 31.3452 13.2943 31.3404 13.2974 31.3358C13.3271 31.2915 13.3558 31.2465 13.3838 31.201C13.3904 31.1903 13.3971 31.1797 13.4035 31.169C13.4328 31.1204 13.4612 31.0713 13.4885 31.0215C13.4936 31.012 13.4986 31.0025 13.5037 30.993C13.528 30.9476 13.5515 30.9018 13.5742 30.8556C13.5785 30.8468 13.5829 30.8381 13.5871 30.8293C13.6119 30.7777 13.6355 30.7254 13.658 30.6727C13.6631 30.661 13.668 30.6491 13.6729 30.6373C13.6946 30.5852 13.7155 30.5328 13.7352 30.4795C13.7361 30.477 13.7372 30.4745 13.7381 30.472C13.7584 30.4168 13.777 30.3609 13.7948 30.3046C13.7987 30.2922 13.8027 30.2799 13.8065 30.2674C13.8237 30.2113 13.84 30.1548 13.8548 30.0977C13.8565 30.0914 13.8579 30.085 13.8594 30.0787C13.8729 30.0256 13.8853 29.972 13.8966 29.9181C13.899 29.9066 13.9016 29.8952 13.9039 29.8838C13.9156 29.8259 13.9261 29.7676 13.9352 29.7088C13.9369 29.6979 13.9384 29.687 13.94 29.6761C13.9481 29.6216 13.9551 29.5667 13.961 29.5114C13.9618 29.5036 13.9628 29.4957 13.9636 29.4879C13.9696 29.4277 13.9741 29.367 13.9775 29.3061C13.9782 29.2933 13.9787 29.2805 13.9793 29.2677C13.9822 29.2055 13.9841 29.1432 13.9841 29.0804V15.9836H30.8478V29.0803H30.8479ZM17.6428 1.09091C17.6428 0.908166 17.7909 0.759973 17.9738 0.759973H18.3598V0.373904C18.3598 0.191162 18.508 0.0429688 18.6908 0.0429688C18.8736 0.0429688 19.0217 0.191162 19.0217 0.373904V0.759973H19.4078C19.5906 0.759973 19.7387 0.908166 19.7387 1.09091C19.7387 1.27365 19.5906 1.42184 19.4078 1.42184H19.0217V1.80791C19.0217 1.99065 18.8736 2.13885 18.6908 2.13885C18.508 2.13885 18.3598 1.99065 18.3598 1.80791V1.42184H17.9738C17.7909 1.42184 17.6428 1.27365 17.6428 1.09091ZM14.7745 3.03257C14.7745 2.84983 14.9227 2.70164 15.1055 2.70164H15.4915V2.31557C15.4915 2.13282 15.6397 1.98463 15.8225 1.98463C16.0052 1.98463 16.1534 2.13282 16.1534 2.31557V2.70164H16.5395C16.7222 2.70164 16.8704 2.84983 16.8704 3.03257C16.8704 3.21531 16.7222 3.36351 16.5395 3.36351H16.1534V3.74958C16.1534 3.93232 16.0052 4.08051 15.8225 4.08051C15.6397 4.08051 15.4915 3.93232 15.4915 3.74958V3.36351H15.1055C14.9227 3.36351 14.7745 3.21531 14.7745 3.03257ZM15.4669 29.0454C15.4669 29.2281 15.6151 29.3763 15.7978 29.3763H26.095C26.2778 29.3763 26.4259 29.2281 26.4259 29.0454C26.4259 28.8627 26.2778 28.7145 26.095 28.7145H18.9695C19.0218 28.5885 19.051 28.4506 19.051 28.306V27.7063C19.7789 27.3803 20.2528 26.661 20.2528 25.8466V25.0073C20.2528 23.8833 19.3386 22.9687 18.2149 22.9687H17.6069V22.3333H19.1829C19.7729 22.3333 20.2528 21.8532 20.2528 21.263C20.2528 20.6728 19.7729 20.1927 19.1829 20.1927H19.051V19.7721C19.051 19.1819 18.5709 18.7018 17.9808 18.7018C17.3909 18.7018 16.9109 19.1819 16.9109 19.7721V20.2815C16.0706 20.54 15.4669 21.333 15.4669 22.2315V23.0706C15.4669 24.1948 16.3811 25.1095 17.5048 25.1095H18.1128V25.7449H16.537C15.947 25.7449 15.4669 26.225 15.4669 26.8152C15.4669 27.4053 15.947 27.8853 16.537 27.8853H16.911V28.306C16.911 28.4506 16.9402 28.5885 16.9923 28.7145H15.7979C15.615 28.7145 15.4669 28.8627 15.4669 29.0454ZM17.5728 28.306V27.5543C17.5728 27.3716 17.4247 27.2234 17.2419 27.2234H16.537C16.3119 27.2234 16.1287 27.0403 16.1287 26.8152C16.1287 26.5899 16.3119 26.4067 16.537 26.4067H18.2149C18.5235 26.4067 18.7746 26.1555 18.7746 25.8467V25.0074C18.7746 24.6987 18.5235 24.4476 18.2149 24.4476H17.5048C16.746 24.4476 16.1287 23.8299 16.1287 23.0706V22.2315C16.1287 21.5591 16.6291 20.9742 17.2926 20.871C17.4539 20.846 17.5727 20.7072 17.5727 20.5441V19.7722C17.5727 19.547 17.7557 19.3638 17.9807 19.3638C18.2058 19.3638 18.389 19.547 18.389 19.7722V20.5237C18.389 20.7064 18.5371 20.8546 18.7199 20.8546H19.1827C19.4078 20.8546 19.5908 21.0379 19.5908 21.2631C19.5908 21.4882 19.4078 21.6715 19.1827 21.6715H17.5046C17.196 21.6715 16.9449 21.9227 16.9449 22.2315V23.0706C16.9449 23.3794 17.196 23.6306 17.5046 23.6306H18.2147C18.9735 23.6306 19.5908 24.2482 19.5908 25.0073V25.8466C19.5908 26.4533 19.2013 26.982 18.6217 27.1621C18.4832 27.2051 18.3889 27.3331 18.3889 27.4781V28.306C18.3889 28.5313 18.2057 28.7145 17.9806 28.7145C17.7558 28.7145 17.5728 28.5313 17.5728 28.306ZM27.8794 29.0454C27.8794 29.2281 27.7313 29.3763 27.5484 29.3763H27.3419C27.1591 29.3763 27.0109 29.2281 27.0109 29.0454C27.0109 28.8627 27.1591 28.7145 27.3419 28.7145H27.5484C27.7313 28.7145 27.8794 28.8627 27.8794 29.0454ZM21.5415 19.0328C21.5415 18.85 21.6896 18.7018 21.8724 18.7018H27.5484C27.7313 18.7018 27.8794 18.85 27.8794 19.0328C27.8794 19.2155 27.7313 19.3637 27.5484 19.3637H21.8724C21.6897 19.3637 21.5415 19.2155 21.5415 19.0328ZM21.5415 20.7283C21.5415 20.5455 21.6896 20.3973 21.8724 20.3973H27.5484C27.7313 20.3973 27.8794 20.5455 27.8794 20.7283C27.8794 20.911 27.7313 21.0592 27.5484 21.0592H21.8724C21.6897 21.0592 21.5415 20.911 21.5415 20.7283ZM21.5415 22.4238C21.5415 22.241 21.6896 22.0929 21.8724 22.0929H27.5484C27.7313 22.0929 27.8794 22.241 27.8794 22.4238C27.8794 22.6065 27.7313 22.7547 27.5484 22.7547H21.8724C21.6897 22.7547 21.5415 22.6065 21.5415 22.4238ZM21.5415 24.1193C21.5415 23.9366 21.6896 23.7884 21.8724 23.7884H27.5484C27.7313 23.7884 27.8794 23.9366 27.8794 24.1193C27.8794 24.302 27.7313 24.4502 27.5484 24.4502H21.8724C21.6897 24.4502 21.5415 24.302 21.5415 24.1193ZM3.28255 32.8056C3.28255 32.9883 3.13436 33.1365 2.95161 33.1365H2.51941C2.33667 33.1365 2.18848 32.9883 2.18848 32.8056C2.18848 32.6228 2.33667 32.4746 2.51941 32.4746H2.95161C3.13436 32.4746 3.28255 32.6228 3.28255 32.8056Z" fill="#1C1D21"/>
</g>
<defs>
<clipPath id="clip0">
<rect x="0.302246" y="0.0429688" width="33.0935" height="33.0935" fill="white"/>
</clipPath>
</defs>
</svg>
